<mxfile host="app.diagrams.net" agent="Mozilla/5.0 (Windows NT 10.0; Win64; x64) AppleWebKit/537.36 (KHTML, like Gecko) Chrome/129.0.0.0 Safari/537.36 Edg/129.0.0.0" version="24.7.17">
  <diagram name="Page-1" id="wWrqFPWaI8B8_Sf8meWX">
    <mxGraphModel dx="2245" dy="895" grid="1" gridSize="10" guides="1" tooltips="1" connect="1" arrows="1" fold="1" page="1" pageScale="1" pageWidth="850" pageHeight="1100" math="0" shadow="0">
      <root>
        <mxCell id="0" />
        <mxCell id="1" parent="0" />
        <mxCell id="q9f8n2yYWh1osZkJidTy-1" value="&lt;div align=&quot;left&quot;&gt;&lt;br&gt;&lt;/div&gt;" style="whiteSpace=wrap;html=1;aspect=fixed;" parent="1" vertex="1">
          <mxGeometry x="-150" y="100" width="370" height="370" as="geometry" />
        </mxCell>
        <mxCell id="q9f8n2yYWh1osZkJidTy-3" value="" style="rounded=1;whiteSpace=wrap;html=1;" parent="1" vertex="1">
          <mxGeometry x="-30" y="100" width="120" height="50" as="geometry" />
        </mxCell>
        <mxCell id="q9f8n2yYWh1osZkJidTy-4" value="Command Line" style="text;html=1;align=center;verticalAlign=middle;whiteSpace=wrap;rounded=0;" parent="1" vertex="1">
          <mxGeometry y="110" width="60" height="30" as="geometry" />
        </mxCell>
        <mxCell id="q9f8n2yYWh1osZkJidTy-7" value="" style="whiteSpace=wrap;html=1;aspect=fixed;" parent="1" vertex="1">
          <mxGeometry x="320" y="100" width="370" height="370" as="geometry" />
        </mxCell>
        <mxCell id="q9f8n2yYWh1osZkJidTy-8" value="" style="whiteSpace=wrap;html=1;aspect=fixed;" parent="1" vertex="1">
          <mxGeometry x="790" y="100" width="370" height="370" as="geometry" />
        </mxCell>
        <mxCell id="q9f8n2yYWh1osZkJidTy-10" value="" style="rounded=1;whiteSpace=wrap;html=1;" parent="1" vertex="1">
          <mxGeometry x="420" y="100" width="120" height="60" as="geometry" />
        </mxCell>
        <mxCell id="q9f8n2yYWh1osZkJidTy-9" value="Process Engine" style="text;html=1;align=center;verticalAlign=middle;whiteSpace=wrap;rounded=0;" parent="1" vertex="1">
          <mxGeometry x="430" y="110" width="110" height="30" as="geometry" />
        </mxCell>
        <mxCell id="q9f8n2yYWh1osZkJidTy-13" value="" style="rounded=1;whiteSpace=wrap;html=1;" parent="1" vertex="1">
          <mxGeometry x="915" y="100" width="120" height="60" as="geometry" />
        </mxCell>
        <mxCell id="q9f8n2yYWh1osZkJidTy-12" value="Database" style="text;html=1;align=center;verticalAlign=middle;whiteSpace=wrap;rounded=0;" parent="1" vertex="1">
          <mxGeometry x="945" y="110" width="60" height="30" as="geometry" />
        </mxCell>
        <mxCell id="q9f8n2yYWh1osZkJidTy-14" value="&lt;div&gt;Customer Class&lt;/div&gt;&lt;div&gt;Publications Class&lt;/div&gt;&lt;div&gt;Invoice Class&lt;/div&gt;&lt;div&gt;Order Class&lt;/div&gt;&lt;div&gt;Delivery Area Class&lt;/div&gt;&lt;div&gt;Delivery Driver Class&lt;/div&gt;&lt;div&gt;Delivery Docket Class&lt;/div&gt;&lt;div&gt;Warning Class&lt;br&gt;&lt;/div&gt;" style="text;html=1;align=center;verticalAlign=middle;whiteSpace=wrap;rounded=0;" parent="1" vertex="1">
          <mxGeometry x="380" y="160" width="210" height="220" as="geometry" />
        </mxCell>
        <mxCell id="q9f8n2yYWh1osZkJidTy-20" value="" style="curved=1;endArrow=classic;html=1;rounded=0;entryX=0;entryY=0.5;entryDx=0;entryDy=0;" parent="1" source="q9f8n2yYWh1osZkJidTy-1" edge="1" target="q9f8n2yYWh1osZkJidTy-7">
          <mxGeometry width="50" height="50" relative="1" as="geometry">
            <mxPoint x="220" y="335" as="sourcePoint" />
            <mxPoint x="290.71067811865476" y="285" as="targetPoint" />
          </mxGeometry>
        </mxCell>
        <mxCell id="q9f8n2yYWh1osZkJidTy-21" value="" style="curved=1;endArrow=classic;html=1;rounded=0;entryX=0;entryY=0.5;entryDx=0;entryDy=0;" parent="1" source="q9f8n2yYWh1osZkJidTy-7" target="q9f8n2yYWh1osZkJidTy-8" edge="1">
          <mxGeometry width="50" height="50" relative="1" as="geometry">
            <mxPoint x="665" y="335" as="sourcePoint" />
            <mxPoint x="735.7106781186548" y="285" as="targetPoint" />
          </mxGeometry>
        </mxCell>
        <mxCell id="q9f8n2yYWh1osZkJidTy-23" value="&lt;div&gt;Customer Table&lt;br&gt;&lt;/div&gt;&lt;div&gt;Publications Table&lt;br&gt;&lt;/div&gt;&lt;div&gt;Invoice Tab;le&lt;br&gt;&lt;/div&gt;&lt;div&gt;Order Table&lt;br&gt;&lt;/div&gt;&lt;div&gt;Delivery Area Table&lt;br&gt;&lt;/div&gt;&lt;div&gt;Delivery Driver Table&lt;br&gt;&lt;/div&gt;&lt;div&gt;Delivery Docket Table&lt;br&gt;&lt;/div&gt;&lt;div&gt;Warning Table&lt;br&gt;&lt;/div&gt;" style="text;html=1;align=center;verticalAlign=middle;whiteSpace=wrap;rounded=0;" parent="1" vertex="1">
          <mxGeometry x="825" y="160" width="300" height="230" as="geometry" />
        </mxCell>
        <mxCell id="q9f8n2yYWh1osZkJidTy-24" value="&lt;div&gt;Menu: User Interacts&lt;/div&gt;&lt;div&gt;&lt;br&gt;&lt;/div&gt;&lt;div&gt;&lt;br&gt;&lt;/div&gt;" style="text;html=1;align=center;verticalAlign=middle;whiteSpace=wrap;rounded=0;" parent="1" vertex="1">
          <mxGeometry x="-150" y="160" width="370" height="260" as="geometry" />
        </mxCell>
      </root>
    </mxGraphModel>
  </diagram>
</mxfile>
